			<svg
				xmlns="http://www.w3.org/2000/svg"
				x="0px"
				y="0px"
				width="96"
				height="96"
				viewBox="0,0,256,256"
				style="fill:#000000;"
			>
				<defs
					><linearGradient
						x1="1.663"
						y1="15.426"
						x2="55.413"
						y2="36.058"
						gradientUnits="userSpaceOnUse"
						id="color-1_XrpVmPMACUYb_gr1"
						><stop offset="0.061" stop-color="#05db6d"></stop><stop
							offset="0.201"
							stop-color="#05db6d"></stop><stop offset="0.35" stop-color="#00c25e"></stop><stop
							offset="0.438"
							stop-color="#00c25e"></stop><stop offset="0.55" stop-color="#00c25e"></stop><stop
							offset="0.606"
							stop-color="#05db6d"></stop><stop offset="0.877" stop-color="#05db6d"
						></stop></linearGradient
					><linearGradient
						x1="11.129"
						y1="10.86"
						x2="41.352"
						y2="41.69"
						gradientUnits="userSpaceOnUse"
						id="color-2_XrpVmPMACUYb_gr2"
						><stop offset="0.07" stop-color="#05db6d"></stop><stop
							offset="0.101"
							stop-color="#05db6d"></stop><stop offset="0.135" stop-color="#05db6d"></stop><stop
							offset="0.17"
							stop-color="#05db6d"></stop><stop offset="0.206" stop-color="#05db6d"></stop><stop
							offset="0.242"
							stop-color="#05db6d"></stop><stop offset="0.26" stop-color="#05db6d"></stop><stop
							offset="0.425"
							stop-color="#05db6d"></stop><stop offset="0.437" stop-color="#05db6d"></stop><stop
							offset="0.497"
							stop-color="#05db6d"></stop><stop offset="0.555" stop-color="#05db6d"></stop><stop
							offset="0.609"
							stop-color="#05db6d"></stop><stop offset="0.658" stop-color="#05db6d"></stop><stop
							offset="0.698"
							stop-color="#05db6d"></stop><stop offset="1" stop-color="#05db6d"
						></stop></linearGradient
					></defs
				><g
					fill="none"
					fill-rule="nonzero"
					stroke="none"
					stroke-width="1"
					stroke-linecap="butt"
					stroke-linejoin="miter"
					stroke-miterlimit="10"
					stroke-dasharray=""
					stroke-dashoffset="0"
					font-family="none"
					font-weight="none"
					font-size="none"
					text-anchor="none"
					style="mix-blend-mode: normal"
					><g transform="scale(5.33333,5.33333)"
						><path
							d="M35,35c-4.824,0 -8.171,-3.253 -11,-6.843c-2.829,3.59 -6.176,6.843 -11,6.843c-5.654,0 -11,-5.346 -11,-11c0,-5.654 5.346,-11 11,-11c4.824,0 8.171,3.253 11,6.843c2.829,-3.59 6.176,-6.843 11,-6.843c5.654,0 11,5.346 11,11c0,5.654 -5.346,11 -11,11zM27.11,24c2.44,3.249 4.857,6 7.89,6c3.175,0 6,-3.355 6,-6c0,-2.645 -2.825,-6 -6,-6c-3.032,0 -5.449,2.751 -7.89,6zM13,18c-3.175,0 -6,3.355 -6,6c0,2.645 2.825,6 6,6c3.032,0 5.449,-2.751 7.89,-6c-2.441,-3.249 -4.858,-6 -7.89,-6z"
							fill="url(#color-1_XrpVmPMACUYb_gr1)"></path><g fill="url(#color-2_XrpVmPMACUYb_gr2)"
							><path
								d="M35,30c-7.34,0 -11,-17 -22,-17c0,1.63 0,3.312 0,5c7.479,0 11,17 22,17c0.073,0 0.146,-0.011 0.219,-0.013c-0.119,-1.663 -0.175,-3.326 -0.199,-4.989c-0.006,0.001 -0.013,0.002 -0.02,0.002z"
							></path></g
						></g
					></g
				>
			</svg>